<svg xmlns="http://www.w3.org/2000/svg" viewBox="0 0 73 73"><g id="Layer_2" data-name="Layer 2"><g id="Layer_1-2" data-name="Layer 1"><path d="M36.5,0A36.5,36.5,0,1,0,73,36.5,36.5,36.5,0,0,0,36.5,0Zm0,69.52a33,33,0,1,1,33-33A33,33,0,0,1,36.5,69.52Z"/><polygon points="10.28 29.91 13.78 29.91 13.78 40.17 18.77 40.17 18.77 42.98 10.28 42.98 10.28 29.91"/><polygon points="41.64 35.3 41.64 37.88 43.48 37.88 43.48 40 46.45 40 46.45 35.3 41.64 35.3"/><path d="M26.23,29.31a7.08,7.08,0,1,0,7.08,7.08A7.08,7.08,0,0,0,26.23,29.31Zm0,11a3.89,3.89,0,1,1,3.88-3.88A3.89,3.89,0,0,1,26.23,40.27Z"/><path d="M55.6,29.42a7.08,7.08,0,1,0,7.08,7.08A7.08,7.08,0,0,0,55.6,29.42Zm0,11a3.88,3.88,0,1,1,3.88-3.88A3.89,3.89,0,0,1,55.6,40.38Z"/><path d="M44.28,33.67,46.17,32s-.69-2.12-5.28-2.12A6.72,6.72,0,0,0,37.05,41.8a6.75,6.75,0,0,0,4,1.28,6,6,0,0,0,4.25-1.23A3.62,3.62,0,0,0,46.46,40c-1,0-2.09-.56-3-.13a7.35,7.35,0,0,1-2.8.13s-2.87-.06-2.93-3.5c-.06-4,3-3.77,3-3.77S43.36,32.45,44.28,33.67Z"/></g></g></svg>